<svg fill="none" height="24" viewBox="0 0 99 24" width="99" xmlns="http://www.w3.org/2000/svg" xmlns:xlink="http://www.w3.org/1999/xlink"><clipPath id="a"><path d="m0 0h98.5412v24h-98.5412z"/></clipPath><mask id="b" fill="#000" height="26" maskUnits="userSpaceOnUse" width="26" x="-1" y="-1"><path d="m-1-1h26v26h-26z" fill="#fff"/><path d="m23.9987.299549c-.0031-.15907-.1301-.2882587-.2893-.2938247-.2339-.00761657-5.7564-.1769393-8.1098 2.1759957-.1791.17908-.3368.37638-.4832.58099-.8857-.64758-1.9654-1.00693-3.1164-1.00693s-2.23069.35935-3.11639 1.00693c-.14641-.20461-.30409-.40191-.48318-.58099-2.35363-2.353228-7.876174-2.18478406-8.109808-2.1759957-.159222.005566-.28621942.1347547-.28929548.2938247-.00454084.237578-.08539722 5.843091 2.17638348 8.104631.09569.09568.20108.1829.30557.27053-.18555 1.12118-.0032 2.28159.55192 3.32539-.55512 1.0437-.73747 2.2042-.55192 3.3253-.10449.0877-.20988.1749-.30557.2706-2.2617807 2.2615-2.18092432 7.867-2.17638348 8.1046.00307606.1591.13007348.2883.28929548.2938.033105.0012.172113.0056.393296.0056 1.340872 0 5.696272-.1617 7.716512-2.1816.17909-.179.33677-.3763.48318-.5809.8857.6475 1.96539 1.0069 3.11639 1.0069s2.2307-.3594 3.1164-1.0069c.1464.2046.3041.4019.4832.5809 2.0204 2.0202 6.3759 2.1816 7.7165 2.1816.221 0 .3602-.0044.3933-.0056.1592-.0055.2862-.1347.2893-.2938.0045-.2376.0854-5.8431-2.1764-8.1046-.0957-.0957-.2011-.1829-.3056-.2706.1856-1.1211.0032-2.2816-.5519-3.3253.5551-1.0438.7375-2.20421.5519-3.32539.1045-.08763.2099-.17485.3056-.27053 2.2618-2.26154 2.1809-7.867053 2.1764-8.104631zm-7.9749 2.306361c1.6957-1.695204 5.3914-1.963853 6.9493-1.999446l-4.2255 4.223726c-.6868-.35866-1.4561-.56517-2.2652-.59346-.256-.40966-.5608-.77414-.9032-1.09089.1334-.19078.2788-.37403.4446-.53993zm-.0627 1.93382-.9576 1.65847c-.7152-.9314-1.8031-1.47928-3.0035-1.47928s-2.28831.54788-3.00351 1.47928l-.95759-1.65847c.86384-1.36981 2.3309-2.184 3.9611-2.184s3.0973.81419 3.9611 2.184zm1.8251 10.80077c-.5478.9489-1.5093 1.5304-2.5929 1.5901l-1.198-2.0748c.3347-.2345.626-.5259.8605-.8605l1.2293.7095c.0474.0273.0989.0402.1498.0402.1037 0 .2044-.0539.2601-.15.0828-.1436.0335-.3269-.1099-.4098l-1.2298-.7099c.1703-.3627.2809-.7579.3167-1.1752h2.3945c.4903.9682.4676 2.0915-.0803 3.0404zm-11.57241-6.68088c.54785-.94888 1.5093-1.53032 2.59293-1.59001l1.19798 2.07475c-.33467.23452-.626.52589-.86051.86054l-1.22934-.70959c-.14414-.08319-.32694-.03339-.40985.10986-.08276.14354-.03354.32693.10986.40983l1.22986.7099c-.17029.3626-.28095.7579-.31675 1.1752h-2.39447c-.49026-.9683-.46756-2.09159.08029-3.04048zm8.67341 3.34048c0 1.5921-1.2951 2.8872-2.8872 2.8872s-2.88725-1.2951-2.88725-2.8872c0-1.5922 1.29515-2.88729 2.88725-2.88729s2.8872 1.29509 2.8872 2.88729zm-2.5872-3.47205v-1.41811c0-.1658-.1343-.29997-.3-.29997s-.3.13417-.3.29997v1.41811c-.4174.03582-.8127.14651-1.1754.31682l-1.1981-2.07509c.59337-.90897 1.5776-1.45091 2.6735-1.45091s2.0801.54194 2.6735 1.45091l-1.1981 2.07509c-.3627-.17031-.758-.281-1.1754-.31682zm-6.1665 3.77205h2.39447c.0358.4173.14646.8125.31675 1.1752l-1.22986.7099c-.1434.0829-.19262.2662-.10986.4098.05566.0961.15644.15.26015.15.05083 0 .10239-.0129.1497-.0402l1.22934-.7095c.23451.3346.52584.626.86051.8605l-1.19798 2.0748c-1.08363-.0597-2.04508-.6412-2.59293-1.5901s-.57055-2.0722-.08029-3.0404zm4.3911 2.8552c.3627.1703.758.281 1.1754.3168v1.4181c0 .1658.1343.3.3.3s.3-.1342.3-.3v-1.4181c.4174-.0358.8127-.1465 1.1754-.3168l1.1981 2.0751c-.5934.909-1.5776 1.4509-2.6735 1.4509s-2.08013-.5419-2.6735-1.4509zm7.3419-3.4552h-2.3945c-.0358-.4173-.1464-.8126-.3167-1.1752l1.2298-.7099c.1434-.0829.1927-.26629.1099-.40983-.0831-.14325-.2663-.19305-.4099-.10986l-1.2293.70959c-.2345-.33465-.5258-.62602-.8605-.86054l1.198-2.07475c1.0836.05969 2.0451.64113 2.5929 1.59001.5479.94889.5706 2.07218.0803 3.04048zm-9.44571-8.55426c-.34238.31675-.64724.68123-.90319 1.09089-.80906.02829-1.57842.2348-2.26524.59346l-4.22546-4.223726c1.55817.035593 5.25374.304205 6.94932 1.999446.1658.1659.31118.34917.44457.53993zm-5.81888 4.83415c-1.626132-1.62619-1.933042-5.35799-1.989071-6.9392l4.109541 4.10785c-.64059.43876-1.18688 1.02335-1.59461 1.72958-.21032.36432-.37196.74483-.48969 1.13374-.01149-.01119-.02485-.02067-.03617-.03197zm1.04557-.80179c.81504-1.41183 2.25356-2.27525 3.87167-2.33855l.95761 1.65849c-1.16425.15378-2.18259.82195-2.78268 1.86151-.60012 1.03933-.66955 2.25535-.22056 3.34045h-1.91539c-.75426-1.4328-.72582-3.11038.08935-4.5219zm-.08935 5.1219h1.91539c-.44899 1.0851-.37956 2.3011.22056 3.3404.60009 1.0396 1.61843 1.7077 2.78268 1.8615l-.95761 1.6585c-1.61811-.0633-3.05663-.9267-3.87167-2.3385-.81517-1.4116-.84361-3.0891-.08935-4.5219zm-.95622 3.7201c.01132-.0113.02468-.0208.03617-.032.11771.3889.27937.7694.48969 1.1337.40773.7063.95402 1.2909 1.59461 1.7296l-4.109541 4.1079c.056029-1.5812.362939-5.313 1.989071-6.9392zm5.37431 5.3741c-1.69567 1.6952-5.39137 1.9638-6.94932 1.9994l4.22546-4.2237c.68682.3586 1.45618.5651 2.26524.5934.25595.4097.56081.7742.90319 1.0909-.13339.1908-.27877.3741-.44457.54zm.06268-1.9339.95759-1.6584c.7152.9314 1.80311 1.4792 3.00351 1.4792s2.2883-.5478 3.0035-1.4792l.9576 1.6584c-.8638 1.3698-2.3309 2.184-3.9611 2.184s-3.09726-.8142-3.9611-2.184zm7.5403 1.3939c.3424-.3167.6472-.6812.9032-1.0909.8091-.0283 1.5784-.2348 2.2652-.5934l4.2255 4.2237c-1.5582-.0356-5.2537-.3042-6.9493-1.9994-.1658-.1659-.3112-.3492-.4446-.54zm5.8189-4.8341c1.6261 1.6262 1.933 5.358 1.9891 6.9392l-4.1096-4.1079c.6406-.4387 1.1869-1.0233 1.5946-1.7296.2104-.3643.372-.7448.4897-1.1337.0115.0112.0249.0207.0362.032zm-1.0456.8018c-.815 1.4118-2.2535 2.2752-3.8717 2.3385l-.9576-1.6585c1.1643-.1538 2.1826-.8219 2.7827-1.8615.6001-1.0393.6696-2.2553.2206-3.3404h1.9154c.7542 1.4328.7258 3.1103-.0894 4.5219zm.0894-5.1219h-1.9154c.449-1.0851.3795-2.30112-.2206-3.34045-.6001-1.03956-1.6184-1.70773-2.7827-1.86151l.9576-1.65849c1.6182.0633 3.0567.92672 3.8717 2.33855.8152 1.41152.8436 3.0891.0894 4.5219zm.4303-4.82188c-.4077-.70623-.954-1.29082-1.5946-1.72958l4.1096-4.10785c-.0561 1.58121-.363 5.31301-1.9891 6.9392-.0113.0113-.0247.02078-.0362.03197-.1177-.38891-.2793-.76942-.4897-1.13374z" fill="#000"/></mask><g clip-path="url(#a)"><g fill="#2d2d41"><path d="m35.2002 21v-.25l.625-.225c.3333-.1333.5917-.2917.775-.475.1833-.2.3333-.475.45-.825l5.15-14.77501h2.125l5.075 14.87501c.1333.3667.2833.65.45.85.1667.1833.425.3417.775.475l.3.1v.25h-6.35v-.25l.375-.125c.35-.1333.5583-.3167.625-.55.0833-.25.075-.5417-.025-.875l-1.175-3.6h-5.55l-1.2 3.525c-.1167.3667-.1583.6583-.125.875.05.2167.25.3917.6.525l.55.225v.25zm3.8-5.9h5.225l-2.525-7.77501z"/><path d="m59.6775 21.45c-1.6166 0-3.0833-.325-4.4-.975-1.3-.6667-2.3333-1.65-3.1-2.95-.7666-1.3-1.15-2.8917-1.15-4.775 0-1.4333.2334-2.6917.7-3.77501.4667-1.08333 1.1-1.99167 1.9-2.725.8167-.73334 1.75-1.28334 2.8-1.65 1.0667-.36667 2.1917-.55 3.375-.55.95 0 1.825.10833 2.625.325.8.21666 1.55.51666 2.25.9l.1 3.075h-.25l-1.25-2c-.1666-.31667-.35-.6-.55-.85-.2-.26667-.45-.46667-.75-.6-.25-.11667-.5-.2-.75-.25-.2333-.06667-.5333-.1-.9-.1-.9666 0-1.85.25833-2.65.775-.7833.51666-1.4166 1.375-1.9 2.575-.4666 1.18333-.7 2.80831-.7 4.87501 0 2.05.225 3.675.675 4.875.45 1.1833 1.0584 2.0333 1.825 2.55.7834.5 1.6584.75 2.625.75.5334 0 .9584-.0333 1.275-.1.3167-.0833.6334-.2.95-.35.3167-.1333.5584-.325.725-.575.1667-.2667.3167-.55.45-.85l1.1-2.45h.25l-.075 3.575c-.7.3667-1.4833.6667-2.35.9-.8666.2333-1.8166.35-2.85.35z"/><path d="m66.091 21v-.25l.5-.175c.5667-.1833.85-.6583.85-1.425v-12.80001c0-.33334-.0417-.6-.125-.8-.0667-.2-.2583-.36667-.575-.5l-.65-.3v-.25h4.825l4.625 12.10001 4.35-12.10001h4.925v.25l-.4.15c-.3167.11666-.5333.28333-.65.5-.1166.2-.175.46666-.175.8v13.07501c0 .3333.0417.5917.125.775s.2833.3417.6.475l.5.225v.25h-6.225v-.25l.525-.225c.3167-.1333.5167-.2917.6-.475s.125-.4417.125-.775v-5.625l.05-7.15001-5.225 14.50001h-1.25l-5.45-14.32501.075 6.22501v6.3c0 .3667.05.6667.15.9.1167.2167.3333.375.65.475l.55.175v.25z"/><path d="m85.9164 21v-.25l.575-.225c.2833-.1167.475-.2667.575-.45.1167-.2.175-.4667.175-.8v-13.05001c0-.33334-.05-.59167-.15-.775-.0833-.2-.2833-.35833-.6-.475l-.575-.225v-.25h11.975l.15 3.85h-.25l-1.075-2.35c-.15-.3-.3083-.54167-.475-.725-.1667-.18334-.4167-.275-.75-.275h-4.5v7.22501h2.675c.3333 0 .5833-.0833.75-.25.1833-.1833.3417-.425.475-.725l.5-1h.25v4.5h-.25l-.5-1.05c-.15-.3-.3083-.5333-.475-.7-.1667-.1833-.4167-.275-.75-.275h-2.675v7.775h5.05c.3333 0 .5917-.0833.775-.25.1833-.1833.3333-.4333.45-.75l1.025-2.35h.25l-.15 3.85z"/><path d="m23.9987.299549c-.0031-.15907-.1301-.2882587-.2893-.2938247-.2339-.00761657-5.7564-.1769393-8.1098 2.1759957-.1791.17908-.3368.37638-.4832.58099-.8857-.64758-1.9654-1.00693-3.1164-1.00693s-2.23069.35935-3.11639 1.00693c-.14641-.20461-.30409-.40191-.48318-.58099-2.35363-2.353228-7.876174-2.18478406-8.109808-2.1759957-.159222.005566-.28621942.1347547-.28929548.2938247-.00454084.237578-.08539722 5.843091 2.17638348 8.104631.09569.09568.20108.1829.30557.27053-.18555 1.12118-.0032 2.28159.55192 3.32539-.55512 1.0437-.73747 2.2042-.55192 3.3253-.10449.0877-.20988.1749-.30557.2706-2.2617807 2.2615-2.18092432 7.867-2.17638348 8.1046.00307606.1591.13007348.2883.28929548.2938.033105.0012.172113.0056.393296.0056 1.340872 0 5.696272-.1617 7.716512-2.1816.17909-.179.33677-.3763.48318-.5809.8857.6475 1.96539 1.0069 3.11639 1.0069s2.2307-.3594 3.1164-1.0069c.1464.2046.3041.4019.4832.5809 2.0204 2.0202 6.3759 2.1816 7.7165 2.1816.221 0 .3602-.0044.3933-.0056.1592-.0055.2862-.1347.2893-.2938.0045-.2376.0854-5.8431-2.1764-8.1046-.0957-.0957-.2011-.1829-.3056-.2706.1856-1.1211.0032-2.2816-.5519-3.3253.5551-1.0438.7375-2.20421.5519-3.32539.1045-.08763.2099-.17485.3056-.27053 2.2618-2.26154 2.1809-7.867053 2.1764-8.104631zm-7.9749 2.306361c1.6957-1.695204 5.3914-1.963853 6.9493-1.999446l-4.2255 4.223726c-.6868-.35866-1.4561-.56517-2.2652-.59346-.256-.40966-.5608-.77414-.9032-1.09089.1334-.19078.2788-.37403.4446-.53993zm-.0627 1.93382-.9576 1.65847c-.7152-.9314-1.8031-1.47928-3.0035-1.47928s-2.28831.54788-3.00351 1.47928l-.95759-1.65847c.86384-1.36981 2.3309-2.184 3.9611-2.184s3.0973.81419 3.9611 2.184zm1.8251 10.80077c-.5478.9489-1.5093 1.5304-2.5929 1.5901l-1.198-2.0748c.3347-.2345.626-.5259.8605-.8605l1.2293.7095c.0474.0273.0989.0402.1498.0402.1037 0 .2044-.0539.2601-.15.0828-.1436.0335-.3269-.1099-.4098l-1.2298-.7099c.1703-.3627.2809-.7579.3167-1.1752h2.3945c.4903.9682.4676 2.0915-.0803 3.0404zm-11.57241-6.68088c.54785-.94888 1.5093-1.53032 2.59293-1.59001l1.19798 2.07475c-.33467.23452-.626.52589-.86051.86054l-1.22934-.70959c-.14414-.08319-.32694-.03339-.40985.10986-.08276.14354-.03354.32693.10986.40983l1.22986.7099c-.17029.3626-.28095.7579-.31675 1.1752h-2.39447c-.49026-.9683-.46756-2.09159.08029-3.04048zm8.67341 3.34048c0 1.5921-1.2951 2.8872-2.8872 2.8872s-2.88725-1.2951-2.88725-2.8872c0-1.5922 1.29515-2.88729 2.88725-2.88729s2.8872 1.29509 2.8872 2.88729zm-2.5872-3.47205v-1.41811c0-.1658-.1343-.29997-.3-.29997s-.3.13417-.3.29997v1.41811c-.4174.03582-.8127.14651-1.1754.31682l-1.1981-2.07509c.59337-.90897 1.5776-1.45091 2.6735-1.45091s2.0801.54194 2.6735 1.45091l-1.1981 2.07509c-.3627-.17031-.758-.281-1.1754-.31682zm-6.1665 3.77205h2.39447c.0358.4173.14646.8125.31675 1.1752l-1.22986.7099c-.1434.0829-.19262.2662-.10986.4098.05566.0961.15644.15.26015.15.05083 0 .10239-.0129.1497-.0402l1.22934-.7095c.23451.3346.52584.626.86051.8605l-1.19798 2.0748c-1.08363-.0597-2.04508-.6412-2.59293-1.5901s-.57055-2.0722-.08029-3.0404zm4.3911 2.8552c.3627.1703.758.281 1.1754.3168v1.4181c0 .1658.1343.3.3.3s.3-.1342.3-.3v-1.4181c.4174-.0358.8127-.1465 1.1754-.3168l1.1981 2.0751c-.5934.909-1.5776 1.4509-2.6735 1.4509s-2.08013-.5419-2.6735-1.4509zm7.3419-3.4552h-2.3945c-.0358-.4173-.1464-.8126-.3167-1.1752l1.2298-.7099c.1434-.0829.1927-.26629.1099-.40983-.0831-.14325-.2663-.19305-.4099-.10986l-1.2293.70959c-.2345-.33465-.5258-.62602-.8605-.86054l1.198-2.07475c1.0836.05969 2.0451.64113 2.5929 1.59001.5479.94889.5706 2.07218.0803 3.04048zm-9.44571-8.55426c-.34238.31675-.64724.68123-.90319 1.09089-.80906.02829-1.57842.2348-2.26524.59346l-4.22546-4.223726c1.55817.035593 5.25374.304205 6.94932 1.999446.1658.1659.31118.34917.44457.53993zm-5.81888 4.83415c-1.626132-1.62619-1.933042-5.35799-1.989071-6.9392l4.109541 4.10785c-.64059.43876-1.18688 1.02335-1.59461 1.72958-.21032.36432-.37196.74483-.48969 1.13374-.01149-.01119-.02485-.02067-.03617-.03197zm1.04557-.80179c.81504-1.41183 2.25356-2.27525 3.87167-2.33855l.95761 1.65849c-1.16425.15378-2.18259.82195-2.78268 1.86151-.60012 1.03933-.66955 2.25535-.22056 3.34045h-1.91539c-.75426-1.4328-.72582-3.11038.08935-4.5219zm-.08935 5.1219h1.91539c-.44899 1.0851-.37956 2.3011.22056 3.3404.60009 1.0396 1.61843 1.7077 2.78268 1.8615l-.95761 1.6585c-1.61811-.0633-3.05663-.9267-3.87167-2.3385-.81517-1.4116-.84361-3.0891-.08935-4.5219zm-.95622 3.7201c.01132-.0113.02468-.0208.03617-.032.11771.3889.27937.7694.48969 1.1337.40773.7063.95402 1.2909 1.59461 1.7296l-4.109541 4.1079c.056029-1.5812.362939-5.313 1.989071-6.9392zm5.37431 5.3741c-1.69567 1.6952-5.39137 1.9638-6.94932 1.9994l4.22546-4.2237c.68682.3586 1.45618.5651 2.26524.5934.25595.4097.56081.7742.90319 1.0909-.13339.1908-.27877.3741-.44457.54zm.06268-1.9339.95759-1.6584c.7152.9314 1.80311 1.4792 3.00351 1.4792s2.2883-.5478 3.0035-1.4792l.9576 1.6584c-.8638 1.3698-2.3309 2.184-3.9611 2.184s-3.09726-.8142-3.9611-2.184zm7.5403 1.3939c.3424-.3167.6472-.6812.9032-1.0909.8091-.0283 1.5784-.2348 2.2652-.5934l4.2255 4.2237c-1.5582-.0356-5.2537-.3042-6.9493-1.9994-.1658-.1659-.3112-.3492-.4446-.54zm5.8189-4.8341c1.6261 1.6262 1.933 5.358 1.9891 6.9392l-4.1096-4.1079c.6406-.4387 1.1869-1.0233 1.5946-1.7296.2104-.3643.372-.7448.4897-1.1337.0115.0112.0249.0207.0362.032zm-1.0456.8018c-.815 1.4118-2.2535 2.2752-3.8717 2.3385l-.9576-1.6585c1.1643-.1538 2.1826-.8219 2.7827-1.8615.6001-1.0393.6696-2.2553.2206-3.3404h1.9154c.7542 1.4328.7258 3.1103-.0894 4.5219zm.0894-5.1219h-1.9154c.449-1.0851.3795-2.30112-.2206-3.34045-.6001-1.03956-1.6184-1.70773-2.7827-1.86151l.9576-1.65849c1.6182.0633 3.0567.92672 3.8717 2.33855.8152 1.41152.8436 3.0891.0894 4.5219zm.4303-4.82188c-.4077-.70623-.954-1.29082-1.5946-1.72958l4.1096-4.10785c-.0561 1.58121-.363 5.31301-1.9891 6.9392-.0113.0113-.0247.02078-.0362.03197-.1177-.38891-.2793-.76942-.4897-1.13374z"/></g><path d="m23.9987.299549c-.0031-.15907-.1301-.2882587-.2893-.2938247-.2339-.00761657-5.7564-.1769393-8.1098 2.1759957-.1791.17908-.3368.37638-.4832.58099-.8857-.64758-1.9654-1.00693-3.1164-1.00693s-2.23069.35935-3.11639 1.00693c-.14641-.20461-.30409-.40191-.48318-.58099-2.35363-2.353228-7.876174-2.18478406-8.109808-2.1759957-.159222.005566-.28621942.1347547-.28929548.2938247-.00454084.237578-.08539722 5.843091 2.17638348 8.104631.09569.09568.20108.1829.30557.27053-.18555 1.12118-.0032 2.28159.55192 3.32539-.55512 1.0437-.73747 2.2042-.55192 3.3253-.10449.0877-.20988.1749-.30557.2706-2.2617807 2.2615-2.18092432 7.867-2.17638348 8.1046.00307606.1591.13007348.2883.28929548.2938.033105.0012.172113.0056.393296.0056 1.340872 0 5.696272-.1617 7.716512-2.1816.17909-.179.33677-.3763.48318-.5809.8857.6475 1.96539 1.0069 3.11639 1.0069s2.2307-.3594 3.1164-1.0069c.1464.2046.3041.4019.4832.5809 2.0204 2.0202 6.3759 2.1816 7.7165 2.1816.221 0 .3602-.0044.3933-.0056.1592-.0055.2862-.1347.2893-.2938.0045-.2376.0854-5.8431-2.1764-8.1046-.0957-.0957-.2011-.1829-.3056-.2706.1856-1.1211.0032-2.2816-.5519-3.3253.5551-1.0438.7375-2.20421.5519-3.32539.1045-.08763.2099-.17485.3056-.27053 2.2618-2.26154 2.1809-7.867053 2.1764-8.104631zm-7.9749 2.306361c1.6957-1.695204 5.3914-1.963853 6.9493-1.999446l-4.2255 4.223726c-.6868-.35866-1.4561-.56517-2.2652-.59346-.256-.40966-.5608-.77414-.9032-1.09089.1334-.19078.2788-.37403.4446-.53993zm-.0627 1.93382-.9576 1.65847c-.7152-.9314-1.8031-1.47928-3.0035-1.47928s-2.28831.54788-3.00351 1.47928l-.95759-1.65847c.86384-1.36981 2.3309-2.184 3.9611-2.184s3.0973.81419 3.9611 2.184zm1.8251 10.80077c-.5478.9489-1.5093 1.5304-2.5929 1.5901l-1.198-2.0748c.3347-.2345.626-.5259.8605-.8605l1.2293.7095c.0474.0273.0989.0402.1498.0402.1037 0 .2044-.0539.2601-.15.0828-.1436.0335-.3269-.1099-.4098l-1.2298-.7099c.1703-.3627.2809-.7579.3167-1.1752h2.3945c.4903.9682.4676 2.0915-.0803 3.0404zm-11.57241-6.68088c.54785-.94888 1.5093-1.53032 2.59293-1.59001l1.19798 2.07475c-.33467.23452-.626.52589-.86051.86054l-1.22934-.70959c-.14414-.08319-.32694-.03339-.40985.10986-.08276.14354-.03354.32693.10986.40983l1.22986.7099c-.17029.3626-.28095.7579-.31675 1.1752h-2.39447c-.49026-.9683-.46756-2.09159.08029-3.04048zm8.67341 3.34048c0 1.5921-1.2951 2.8872-2.8872 2.8872s-2.88725-1.2951-2.88725-2.8872c0-1.5922 1.29515-2.88729 2.88725-2.88729s2.8872 1.29509 2.8872 2.88729zm-2.5872-3.47205v-1.41811c0-.1658-.1343-.29997-.3-.29997s-.3.13417-.3.29997v1.41811c-.4174.03582-.8127.14651-1.1754.31682l-1.1981-2.07509c.59337-.90897 1.5776-1.45091 2.6735-1.45091s2.0801.54194 2.6735 1.45091l-1.1981 2.07509c-.3627-.17031-.758-.281-1.1754-.31682zm-6.1665 3.77205h2.39447c.0358.4173.14646.8125.31675 1.1752l-1.22986.7099c-.1434.0829-.19262.2662-.10986.4098.05566.0961.15644.15.26015.15.05083 0 .10239-.0129.1497-.0402l1.22934-.7095c.23451.3346.52584.626.86051.8605l-1.19798 2.0748c-1.08363-.0597-2.04508-.6412-2.59293-1.5901s-.57055-2.0722-.08029-3.0404zm4.3911 2.8552c.3627.1703.758.281 1.1754.3168v1.4181c0 .1658.1343.3.3.3s.3-.1342.3-.3v-1.4181c.4174-.0358.8127-.1465 1.1754-.3168l1.1981 2.0751c-.5934.909-1.5776 1.4509-2.6735 1.4509s-2.08013-.5419-2.6735-1.4509zm7.3419-3.4552h-2.3945c-.0358-.4173-.1464-.8126-.3167-1.1752l1.2298-.7099c.1434-.0829.1927-.26629.1099-.40983-.0831-.14325-.2663-.19305-.4099-.10986l-1.2293.70959c-.2345-.33465-.5258-.62602-.8605-.86054l1.198-2.07475c1.0836.05969 2.0451.64113 2.5929 1.59001.5479.94889.5706 2.07218.0803 3.04048zm-9.44571-8.55426c-.34238.31675-.64724.68123-.90319 1.09089-.80906.02829-1.57842.2348-2.26524.59346l-4.22546-4.223726c1.55817.035593 5.25374.304205 6.94932 1.999446.1658.1659.31118.34917.44457.53993zm-5.81888 4.83415c-1.626132-1.62619-1.933042-5.35799-1.989071-6.9392l4.109541 4.10785c-.64059.43876-1.18688 1.02335-1.59461 1.72958-.21032.36432-.37196.74483-.48969 1.13374-.01149-.01119-.02485-.02067-.03617-.03197zm1.04557-.80179c.81504-1.41183 2.25356-2.27525 3.87167-2.33855l.95761 1.65849c-1.16425.15378-2.18259.82195-2.78268 1.86151-.60012 1.03933-.66955 2.25535-.22056 3.34045h-1.91539c-.75426-1.4328-.72582-3.11038.08935-4.5219zm-.08935 5.1219h1.91539c-.44899 1.0851-.37956 2.3011.22056 3.3404.60009 1.0396 1.61843 1.7077 2.78268 1.8615l-.95761 1.6585c-1.61811-.0633-3.05663-.9267-3.87167-2.3385-.81517-1.4116-.84361-3.0891-.08935-4.5219zm-.95622 3.7201c.01132-.0113.02468-.0208.03617-.032.11771.3889.27937.7694.48969 1.1337.40773.7063.95402 1.2909 1.59461 1.7296l-4.109541 4.1079c.056029-1.5812.362939-5.313 1.989071-6.9392zm5.37431 5.3741c-1.69567 1.6952-5.39137 1.9638-6.94932 1.9994l4.22546-4.2237c.68682.3586 1.45618.5651 2.26524.5934.25595.4097.56081.7742.90319 1.0909-.13339.1908-.27877.3741-.44457.54zm.06268-1.9339.95759-1.6584c.7152.9314 1.80311 1.4792 3.00351 1.4792s2.2883-.5478 3.0035-1.4792l.9576 1.6584c-.8638 1.3698-2.3309 2.184-3.9611 2.184s-3.09726-.8142-3.9611-2.184zm7.5403 1.3939c.3424-.3167.6472-.6812.9032-1.0909.8091-.0283 1.5784-.2348 2.2652-.5934l4.2255 4.2237c-1.5582-.0356-5.2537-.3042-6.9493-1.9994-.1658-.1659-.3112-.3492-.4446-.54zm5.8189-4.8341c1.6261 1.6262 1.933 5.358 1.9891 6.9392l-4.1096-4.1079c.6406-.4387 1.1869-1.0233 1.5946-1.7296.2104-.3643.372-.7448.4897-1.1337.0115.0112.0249.0207.0362.032zm-1.0456.8018c-.815 1.4118-2.2535 2.2752-3.8717 2.3385l-.9576-1.6585c1.1643-.1538 2.1826-.8219 2.7827-1.8615.6001-1.0393.6696-2.2553.2206-3.3404h1.9154c.7542 1.4328.7258 3.1103-.0894 4.5219zm.0894-5.1219h-1.9154c.449-1.0851.3795-2.30112-.2206-3.34045-.6001-1.03956-1.6184-1.70773-2.7827-1.86151l.9576-1.65849c1.6182.0633 3.0567.92672 3.8717 2.33855.8152 1.41152.8436 3.0891.0894 4.5219zm.4303-4.82188c-.4077-.70623-.954-1.29082-1.5946-1.72958l4.1096-4.10785c-.0561 1.58121-.363 5.31301-1.9891 6.9392-.0113.0113-.0247.02078-.0362.03197-.1177-.38891-.2793-.76942-.4897-1.13374z" mask="url(#b)" stroke="#2d2d41" stroke-width=".5"/></g></svg>