<svg fill="none" height="24" viewBox="0 0 24 24" width="24" xmlns="http://www.w3.org/2000/svg"><path d="m3.20225 4.73725c.13841-2.10259 1.88422-3.73725 3.99136-3.73725h10.61279c2.1071 0 3.8529 1.63466 3.9913 3.73725l.9217 13.99995c.1519 2.3076-1.6788 4.2628-3.9914 4.2628h-12.45602c-2.31254 0-4.14327-1.9552-3.99136-4.2628zm5.90747-.34547v-.60864c0-.47928-.38854-.86781-.86782-.86781-.47928 0-.86781.38853-.86781.86781v.60864c0 2.82821 2.29521 5.12053 5.12591 5.12053 2.8312 0 5.1259-2.29232 5.1259-5.12053v-.60876c0-.47922-.3885-.86769-.8677-.86769-.4792 0-.8677.38847-.8677.86769v.60876c0 1.87055-1.518 3.38673-3.3903 3.38673-1.8722 0-3.39048-1.51642-3.39048-3.38673z" fill="#2d2d41"/></svg>